g path
v -1.326065 -0.2499947 -2.251731E-08
v -1.326065 -0.2499944 -0.08000012
v -1.370824 -0.2499971 -3.394153E-08
v -1.370823 -0.2499969 -0.08000012
v -1.446495 -0.2500022 6.622738E-08
v -1.446494 -0.250002 -0.08000003
v -1.521754 -0.250006 7.947285E-09
v -1.521754 -0.2500058 -0.08000009
v -1.597012 -0.2500065 -6.887647E-08
v -1.597012 -0.2500063 -0.08000016
v -1.672499 -0.2500059 1.907349E-07
v -1.672499 -0.2500057 -0.0799999
v -1.748064 -0.2500029 6.357828E-08
v -1.748064 -0.2500027 -0.08000004
v -1.823823 -0.2499988 4.238552E-08
v -1.823823 -0.2499986 -0.08000004
v -1.899601 -0.2499935 -1.801385E-07
v -1.899601 -0.2499932 -0.08000027
v -1.97523 -0.2499866 0
v -1.975229 -0.2499864 -0.08000009
v -2.050552 -0.2499791 1.271566E-07
v -2.050552 -0.2499788 -0.07999997
v -2.125712 -0.2499716 -4.238552E-08
v -2.125712 -0.2499714 -0.08000013
v -2.20038 -0.2499667 -6.357828E-08
v -2.20038 -0.2499666 -0.08000015
v -2.275618 -0.249963 -1.059638E-07
v -2.275618 -0.2499628 -0.08000021
v -2.351042 -0.2499608 -1.271566E-07
v -2.351042 -0.2499606 -0.08000021
v -2.425939 -0.2499589 -1.059638E-07
v -2.425939 -0.2499588 -0.08000021
v -2.50034 -0.249958 0
v -2.50034 -0.2499578 -0.08000011
v -2.574799 -0.249957 0
v -2.574799 -0.2499569 -0.08000009
v -2.650003 -0.2499568 0
v -2.650002 -0.2499566 -0.08000009
v -2.72496 -0.2499556 -2.966987E-07
v -2.72496 -0.2499554 -0.08000039
v -2.799761 -0.2499555 -1.695421E-07
v -2.79976 -0.2499553 -0.0800003
v -2.875291 -0.2499559 8.477105E-08
v -2.875291 -0.2499557 -0.08000004
v -2.950278 -0.249955 -2.119276E-07
v -2.950278 -0.2499547 -0.0800003
v -3.025551 -0.249955 -2.119276E-07
v -3.025551 -0.2499548 -0.0800003
v -3.100887 -0.2499552 -8.477105E-08
v -3.100887 -0.2499551 -0.08000026
v -3.1762 -0.2499556 -8.477105E-08
v -3.1762 -0.2499554 -0.08000017
v -3.251705 -0.2499554 -1.695421E-07
v -3.251705 -0.2499553 -0.08000026
v -3.327171 -0.2499556 -8.477105E-08
v -3.327171 -0.2499554 -0.08000013
v -3.39996 -0.2499555 -1.695421E-07
v -3.39996 -0.2499552 -0.08000026

vn 5.355477E-05 -1 1.192093E-07
vn 5.355477E-05 -1 1.192093E-07
vn 6.350875E-05 -0.9999999 -5.960464E-08
vn 6.350875E-05 -0.9999999 -5.960464E-08
vn 6.264448E-05 -1 8.940697E-08
vn 6.264448E-05 -1 8.940697E-08
vn 2.929568E-05 -0.9999999 -2.980232E-08
vn 2.929568E-05 -0.9999999 -2.980232E-08
vn -4.351139E-06 -0.9999999 -2.980232E-08
vn -4.351139E-06 -0.9999999 -2.980232E-08
vn -2.652407E-05 -1 1.490116E-07
vn -2.652407E-05 -1 1.490116E-07
vn -4.392862E-05 -1 1.490116E-07
vn -4.392862E-05 -1 1.490116E-07
vn -6.043911E-05 -0.9999999 1.192093E-07
vn -6.043911E-05 -0.9999999 1.192093E-07
vn -7.915497E-05 -1 5.960464E-08
vn -7.915497E-05 -1 5.960464E-08
vn -0.0001014173 -1 0
vn -0.0001014173 -1 0
vn -0.0001018047 -1 -5.960464E-08
vn -0.0001018047 -1 -5.960464E-08
vn -7.927418E-05 -1 1.192093E-07
vn -7.927418E-05 -1 1.192093E-07
vn -5.617738E-05 -1 0
vn -5.617738E-05 -1 0
vn -3.921986E-05 -1 0
vn -3.921986E-05 -1 0
vn -2.706051E-05 -1 2.980232E-08
vn -2.706051E-05 -1 2.980232E-08
vn -1.907349E-05 -1 8.940697E-08
vn -1.907349E-05 -1 8.940697E-08
vn -1.376867E-05 -1 8.940697E-08
vn -1.376867E-05 -1 8.940697E-08
vn -1.007318E-05 -1 8.940697E-08
vn -1.007318E-05 -1 8.940697E-08
vn -7.212162E-06 -1 1.192093E-07
vn -7.212162E-06 -1 1.192093E-07
vn -5.185604E-06 -1 0
vn -5.185604E-06 -1 0
vn -3.367662E-06 -1 1.192093E-07
vn -3.367662E-06 -1 1.192093E-07
vn -2.05636E-06 -1 2.980232E-08
vn -2.05636E-06 -1 2.980232E-08
vn -1.013279E-06 -1 1.192093E-07
vn -1.013279E-06 -1 1.192093E-07
vn -1.788139E-07 -1 8.940697E-08
vn -1.788139E-07 -1 8.940697E-08
vn 4.172325E-07 -1 0
vn 4.172325E-07 -1 0
vn 9.23872E-07 -1 5.960464E-08
vn 9.23872E-07 -1 5.960464E-08
vn 1.251698E-06 -1 2.980232E-08
vn 1.251698E-06 -1 2.980232E-08
vn 1.400709E-06 -1 5.960464E-08
vn 1.400709E-06 -1 5.960464E-08
vn 1.490116E-06 -0.9999999 -2.980232E-08
vn 1.490116E-06 -0.9999999 -2.980232E-08

vt 0 0.9978504
vt 1 0.9978504
vt 0 0.9977778
vt 1 0.9977778
vt 0 0.9976543
vt 1 0.9976543
vt 0 0.9975309
vt 1 0.9975309
vt 0 0.9974074
vt 1 0.9974074
vt 0 0.9972839
vt 1 0.9972839
vt 0 0.9971605
vt 1 0.9971605
vt 0 0.9970371
vt 1 0.9970371
vt 0 0.9969136
vt 1 0.9969136
vt 0 0.9967901
vt 1 0.9967901
vt 0 0.9966667
vt 1 0.9966667
vt 0 0.9965432
vt 1 0.9965432
vt 0 0.9964198
vt 1 0.9964198
vt 0 0.9962963
vt 1 0.9962963
vt 0 0.9961728
vt 1 0.9961728
vt 0 0.9960494
vt 1 0.9960494
vt 0 0.9959259
vt 1 0.9959259
vt 0 0.9958025
vt 1 0.9958025
vt 0 0.995679
vt 1 0.995679
vt 0 0.9955555
vt 1 0.9955555
vt 0 0.9954321
vt 1 0.9954321
vt 0 0.9953086
vt 1 0.9953086
vt 0 0.9951852
vt 1 0.9951852
vt 0 0.9950618
vt 1 0.9950618
vt 0 0.9949383
vt 1 0.9949383
vt 0 0.9948148
vt 1 0.9948148
vt 0 0.9946914
vt 1 0.9946914
vt 0 0.9945679
vt 1 0.9945679
vt 0 0.9944444
vt 1 0.9944444



vc 1 1 1 1
vc 1 1 1 1
vc 1 1 1 1
vc 1 1 1 1
vc 1 1 1 1
vc 1 1 1 1
vc 1 1 1 1
vc 1 1 1 1
vc 1 1 1 1
vc 1 1 1 1
vc 1 1 1 1
vc 1 1 1 1
vc 1 1 1 1
vc 1 1 1 1
vc 1 1 1 1
vc 1 1 1 1
vc 1 1 1 1
vc 1 1 1 1
vc 1 1 1 1
vc 1 1 1 1
vc 1 1 1 1
vc 1 1 1 1
vc 1 1 1 1
vc 1 1 1 1
vc 1 1 1 1
vc 1 1 1 1
vc 1 1 1 1
vc 1 1 1 1
vc 1 1 1 1
vc 1 1 1 1
vc 1 1 1 1
vc 1 1 1 1
vc 1 1 1 1
vc 1 1 1 1
vc 1 1 1 1
vc 1 1 1 1
vc 1 1 1 1
vc 1 1 1 1
vc 1 1 1 1
vc 1 1 1 1
vc 1 1 1 1
vc 1 1 1 1
vc 1 1 1 1
vc 1 1 1 1
vc 1 1 1 1
vc 1 1 1 1
vc 1 1 1 1
vc 1 1 1 1
vc 1 1 1 1
vc 1 1 1 1
vc 1 1 1 1
vc 1 1 1 1
vc 1 1 1 1
vc 1 1 1 1
vc 1 1 1 1
vc 1 1 1 1
vc 1 1 1 1
vc 1 1 1 1

usemtl _Yellow
usemap _Yellow
f 3/3/3 2/2/2 1/1/1
f 3/3/3 4/4/4 2/2/2
f 5/5/5 4/4/4 3/3/3
f 5/5/5 6/6/6 4/4/4
f 7/7/7 6/6/6 5/5/5
f 7/7/7 8/8/8 6/6/6
f 9/9/9 8/8/8 7/7/7
f 9/9/9 10/10/10 8/8/8
f 11/11/11 10/10/10 9/9/9
f 11/11/11 12/12/12 10/10/10
f 13/13/13 12/12/12 11/11/11
f 13/13/13 14/14/14 12/12/12
f 15/15/15 14/14/14 13/13/13
f 15/15/15 16/16/16 14/14/14
f 17/17/17 16/16/16 15/15/15
f 17/17/17 18/18/18 16/16/16
f 19/19/19 18/18/18 17/17/17
f 19/19/19 20/20/20 18/18/18
f 21/21/21 20/20/20 19/19/19
f 21/21/21 22/22/22 20/20/20
f 23/23/23 22/22/22 21/21/21
f 23/23/23 24/24/24 22/22/22
f 25/25/25 24/24/24 23/23/23
f 25/25/25 26/26/26 24/24/24
f 27/27/27 26/26/26 25/25/25
f 27/27/27 28/28/28 26/26/26
f 29/29/29 28/28/28 27/27/27
f 29/29/29 30/30/30 28/28/28
f 31/31/31 30/30/30 29/29/29
f 31/31/31 32/32/32 30/30/30
f 33/33/33 32/32/32 31/31/31
f 33/33/33 34/34/34 32/32/32
f 35/35/35 34/34/34 33/33/33
f 35/35/35 36/36/36 34/34/34
f 37/37/37 36/36/36 35/35/35
f 37/37/37 38/38/38 36/36/36
f 39/39/39 38/38/38 37/37/37
f 39/39/39 40/40/40 38/38/38
f 41/41/41 40/40/40 39/39/39
f 41/41/41 42/42/42 40/40/40
f 43/43/43 42/42/42 41/41/41
f 43/43/43 44/44/44 42/42/42
f 45/45/45 44/44/44 43/43/43
f 45/45/45 46/46/46 44/44/44
f 47/47/47 46/46/46 45/45/45
f 47/47/47 48/48/48 46/46/46
f 49/49/49 48/48/48 47/47/47
f 49/49/49 50/50/50 48/48/48
f 51/51/51 50/50/50 49/49/49
f 51/51/51 52/52/52 50/50/50
f 53/53/53 52/52/52 51/51/51
f 53/53/53 54/54/54 52/52/52
f 55/55/55 54/54/54 53/53/53
f 55/55/55 56/56/56 54/54/54
f 57/57/57 56/56/56 55/55/55
f 57/57/57 58/58/58 56/56/56
