g path
v -1.326092 0.2500051 -0.07999983
v -1.326093 0.2500049 2.543131E-07
v -1.370855 0.2500029 -0.08000001
v -1.370855 0.2500026 8.477105E-08
v -1.446526 0.2499975 -0.07999983
v -1.446526 0.2499973 2.649095E-07
v -1.521769 0.2499938 -0.07999989
v -1.521769 0.2499937 2.119276E-07
v -1.59701 0.249993 -0.07999995
v -1.59701 0.2499928 1.430511E-07
v -1.672486 0.249994 -0.07999967
v -1.672486 0.2499938 4.238552E-07
v -1.748043 0.2499968 -0.0799998
v -1.748043 0.2499966 2.914005E-07
v -1.823793 0.2500007 -0.0799998
v -1.823794 0.2500006 2.887514E-07
v -1.899562 0.2500064 -0.07999997
v -1.899563 0.2500061 1.245075E-07
v -1.975179 0.2500132 -0.07999993
v -1.975179 0.250013 1.695421E-07
v -2.050502 0.2500208 -0.07999965
v -2.050502 0.2500206 4.45048E-07
v -2.125673 0.2500278 -0.07999983
v -2.125673 0.2500276 2.596113E-07
v -2.200352 0.2500327 -0.07999988
v -2.200352 0.2500325 2.22524E-07
v -2.275598 0.2500367 -0.07999992
v -2.275599 0.2500364 1.695421E-07
v -2.351029 0.250039 -0.07999998
v -2.351029 0.2500388 1.165602E-07
v -2.42593 0.2500408 -0.0799999
v -2.42593 0.2500405 2.013312E-07
v -2.500334 0.2500421 -0.07999992
v -2.500334 0.250042 1.801385E-07
v -2.574794 0.2500425 -0.07999986
v -2.574794 0.2500422 2.331204E-07
v -2.649999 0.2500433 -0.07999992
v -2.65 0.250043 1.695421E-07
v -2.724958 0.250044 -0.08000003
v -2.724958 0.2500437 8.477105E-08
v -2.799759 0.2500444 -0.08000007
v -2.799759 0.2500442 4.238552E-08
v -2.875291 0.250044 -0.07999973
v -2.875291 0.2500439 3.602769E-07
v -2.950278 0.2500444 -0.07999992
v -2.950279 0.2500442 1.695421E-07
v -3.025551 0.2500448 -0.08000004
v -3.025552 0.2500446 4.238552E-08
v -3.100888 0.2500446 -0.07999992
v -3.100888 0.2500444 1.907349E-07
v -3.1762 0.2500443 -0.08000007
v -3.1762 0.2500441 4.238552E-08
v -3.251706 0.2500439 -0.07999992
v -3.251706 0.2500437 1.695421E-07
v -3.327172 0.2500438 -0.07999979
v -3.327172 0.2500436 2.966987E-07
v -3.399961 0.2500439 -0.07999988
v -3.399961 0.2500436 2.119276E-07

vn -5.307794E-05 1 1.192093E-07
vn -5.307794E-05 1 1.192093E-07
vn -6.297231E-05 1 -5.960464E-08
vn -6.297231E-05 1 -5.960464E-08
vn -6.198883E-05 1 0
vn -6.198883E-05 1 0
vn -2.890825E-05 1 -5.960464E-08
vn -2.890825E-05 1 -5.960464E-08
vn 4.291534E-06 1 -5.960464E-08
vn 4.291534E-06 1 -5.960464E-08
vn 2.622604E-05 1 1.192093E-07
vn 2.622604E-05 1 1.192093E-07
vn 4.351139E-05 1 8.940697E-08
vn 4.351139E-05 1 8.940697E-08
vn 5.990267E-05 1 0
vn 5.990267E-05 1 0
vn 7.855892E-05 1 2.980232E-08
vn 7.855892E-05 1 2.980232E-08
vn 0.0001009107 1 -5.960464E-08
vn 0.0001009107 1 -5.960464E-08
vn 0.0001013577 1 -1.192093E-07
vn 0.0001013577 1 -1.192093E-07
vn 7.885695E-05 1 5.960464E-08
vn 7.885695E-05 1 5.960464E-08
vn 5.599856E-05 1 -5.960464E-08
vn 5.599856E-05 1 -5.960464E-08
vn 3.898144E-05 1 -5.960464E-08
vn 3.898144E-05 1 -5.960464E-08
vn 2.706051E-05 0.9999999 -2.980232E-08
vn 2.706051E-05 0.9999999 -2.980232E-08
vn 1.889467E-05 1 2.980232E-08
vn 1.889467E-05 1 2.980232E-08
vn 1.370907E-05 0.9999999 2.980232E-08
vn 1.370907E-05 0.9999999 2.980232E-08
vn 1.001358E-05 1 2.980232E-08
vn 1.001358E-05 1 2.980232E-08
vn 7.212162E-06 1 8.940697E-08
vn 7.212162E-06 1 8.940697E-08
vn 5.066395E-06 1 -2.980232E-08
vn 5.066395E-06 1 -2.980232E-08
vn 3.397465E-06 1 8.940697E-08
vn 3.397465E-06 1 8.940697E-08
vn 2.026558E-06 1 0
vn 2.026558E-06 1 0
vn 1.013279E-06 1 8.940697E-08
vn 1.013279E-06 1 8.940697E-08
vn 1.788139E-07 1 5.960464E-08
vn 1.788139E-07 1 5.960464E-08
vn -4.172325E-07 1 -5.960464E-08
vn -4.172325E-07 1 -5.960464E-08
vn -1.013279E-06 1 -2.980232E-08
vn -1.013279E-06 1 -2.980232E-08
vn -1.192093E-06 1 0
vn -1.192093E-06 1 0
vn -1.341105E-06 0.9999999 0
vn -1.341105E-06 0.9999999 0
vn -1.579523E-06 0.9999999 -5.960464E-08
vn -1.579523E-06 0.9999999 -5.960464E-08

vt 0 0.6130654
vt 1 0.6130654
vt 0 0.6
vt 1 0.6
vt 0 0.5777777
vt 1 0.5777777
vt 0 0.5555556
vt 1 0.5555556
vt 0 0.5333333
vt 1 0.5333333
vt 0 0.5111111
vt 1 0.5111111
vt 0 0.4888889
vt 1 0.4888889
vt 0 0.4666666
vt 1 0.4666666
vt 0 0.4444444
vt 1 0.4444444
vt 0 0.4222222
vt 1 0.4222222
vt 0 0.4
vt 1 0.4
vt 0 0.3777778
vt 1 0.3777778
vt 0 0.3555555
vt 1 0.3555555
vt 0 0.3333333
vt 1 0.3333333
vt 0 0.3111111
vt 1 0.3111111
vt 0 0.2888889
vt 1 0.2888889
vt 0 0.2666667
vt 1 0.2666667
vt 0 0.2444444
vt 1 0.2444444
vt 0 0.2222222
vt 1 0.2222222
vt 0 0.2
vt 1 0.2
vt 0 0.1777778
vt 1 0.1777778
vt 0 0.1555555
vt 1 0.1555555
vt 0 0.1333333
vt 1 0.1333333
vt 0 0.1111111
vt 1 0.1111111
vt 0 0.08888888
vt 1 0.08888888
vt 0 0.06666666
vt 1 0.06666666
vt 0 0.04444444
vt 1 0.04444444
vt 0 0.02222222
vt 1 0.02222222
vt 0 0
vt 1 0



vc 1 1 1 1
vc 1 1 1 1
vc 1 1 1 1
vc 1 1 1 1
vc 1 1 1 1
vc 1 1 1 1
vc 1 1 1 1
vc 1 1 1 1
vc 1 1 1 1
vc 1 1 1 1
vc 1 1 1 1
vc 1 1 1 1
vc 1 1 1 1
vc 1 1 1 1
vc 1 1 1 1
vc 1 1 1 1
vc 1 1 1 1
vc 1 1 1 1
vc 1 1 1 1
vc 1 1 1 1
vc 1 1 1 1
vc 1 1 1 1
vc 1 1 1 1
vc 1 1 1 1
vc 1 1 1 1
vc 1 1 1 1
vc 1 1 1 1
vc 1 1 1 1
vc 1 1 1 1
vc 1 1 1 1
vc 1 1 1 1
vc 1 1 1 1
vc 1 1 1 1
vc 1 1 1 1
vc 1 1 1 1
vc 1 1 1 1
vc 1 1 1 1
vc 1 1 1 1
vc 1 1 1 1
vc 1 1 1 1
vc 1 1 1 1
vc 1 1 1 1
vc 1 1 1 1
vc 1 1 1 1
vc 1 1 1 1
vc 1 1 1 1
vc 1 1 1 1
vc 1 1 1 1
vc 1 1 1 1
vc 1 1 1 1
vc 1 1 1 1
vc 1 1 1 1
vc 1 1 1 1
vc 1 1 1 1
vc 1 1 1 1
vc 1 1 1 1
vc 1 1 1 1
vc 1 1 1 1

usemtl _Yellow
usemap _Yellow
f 3/3/3 2/2/2 1/1/1
f 3/3/3 4/4/4 2/2/2
f 5/5/5 4/4/4 3/3/3
f 5/5/5 6/6/6 4/4/4
f 7/7/7 6/6/6 5/5/5
f 7/7/7 8/8/8 6/6/6
f 9/9/9 8/8/8 7/7/7
f 9/9/9 10/10/10 8/8/8
f 11/11/11 10/10/10 9/9/9
f 11/11/11 12/12/12 10/10/10
f 13/13/13 12/12/12 11/11/11
f 13/13/13 14/14/14 12/12/12
f 15/15/15 14/14/14 13/13/13
f 15/15/15 16/16/16 14/14/14
f 17/17/17 16/16/16 15/15/15
f 17/17/17 18/18/18 16/16/16
f 19/19/19 18/18/18 17/17/17
f 19/19/19 20/20/20 18/18/18
f 21/21/21 20/20/20 19/19/19
f 21/21/21 22/22/22 20/20/20
f 23/23/23 22/22/22 21/21/21
f 23/23/23 24/24/24 22/22/22
f 25/25/25 24/24/24 23/23/23
f 25/25/25 26/26/26 24/24/24
f 27/27/27 26/26/26 25/25/25
f 27/27/27 28/28/28 26/26/26
f 29/29/29 28/28/28 27/27/27
f 29/29/29 30/30/30 28/28/28
f 31/31/31 30/30/30 29/29/29
f 31/31/31 32/32/32 30/30/30
f 33/33/33 32/32/32 31/31/31
f 33/33/33 34/34/34 32/32/32
f 35/35/35 34/34/34 33/33/33
f 35/35/35 36/36/36 34/34/34
f 37/37/37 36/36/36 35/35/35
f 37/37/37 38/38/38 36/36/36
f 39/39/39 38/38/38 37/37/37
f 39/39/39 40/40/40 38/38/38
f 41/41/41 40/40/40 39/39/39
f 41/41/41 42/42/42 40/40/40
f 43/43/43 42/42/42 41/41/41
f 43/43/43 44/44/44 42/42/42
f 45/45/45 44/44/44 43/43/43
f 45/45/45 46/46/46 44/44/44
f 47/47/47 46/46/46 45/45/45
f 47/47/47 48/48/48 46/46/46
f 49/49/49 48/48/48 47/47/47
f 49/49/49 50/50/50 48/48/48
f 51/51/51 50/50/50 49/49/49
f 51/51/51 52/52/52 50/50/50
f 53/53/53 52/52/52 51/51/51
f 53/53/53 54/54/54 52/52/52
f 55/55/55 54/54/54 53/53/53
f 55/55/55 56/56/56 54/54/54
f 57/57/57 56/56/56 55/55/55
f 57/57/57 58/58/58 56/56/56
